<?xml version="1.0" encoding="utf-8"?>
<!-- Generator: Adobe Illustrator 24.3.0, SVG Export Plug-In . SVG Version: 6.00 Build 0)  -->
<svg version="1.1" id="Layer_1" xmlns="http://www.w3.org/2000/svg" xmlns:xlink="http://www.w3.org/1999/xlink" x="0px" y="0px"
	 viewBox="0 0 512 512" style="enable-background:new 0 0 512 512;" xml:space="preserve">
<style type="text/css">
	.st0{fill:#EF402F;}
</style>
<g id="XMLID_1_">
	<path id="XMLID_4_" class="st0" d="M485.69,213.28c-24.32,0-51.91,26.03-67.13,26.03c-8.96,0-9.24-9.53-9.24-12.37
		c0-6.54,0-6.4,0-6.4c-3.84-2.13-11.66-2.42-15.64-2.42c-5.4,0-9.39,0.85-10.52,1.14c-2.56,0.43-2.99,1.28-3.56,2.42
		c-9.96,22.47-23.61,60.87-29.58,80.5v-0.14c-1.14,4.27-1.99,6.83-2.56,8.96l-1.85,7.4c-0.57,2.56-0.57,3.84,1.56,4.98
		c0.71,0.28,7.96,3.98,14.65,3.98c5.55,0,10.1-1.14,13.37-4.69c2.99-3.27,9.81-11.09,18.77-21.05l0,0
		c20.62-21.33,52.05-50.77,71.96-50.77c4.69,0,6.12,3.41,6.12,8.11c0,5.97-6.68,27.02-12.09,42.67l0,0
		c-2.42,7.11-4.55,13.65-5.69,17.07c-0.57,1.85,0.28,3.41,1,3.98c3.7,2.84,11.09,5.4,21.05,5.4c5.55,0,9.67-0.71,11.95-6.54
		c1-2.7,3.56-9.81,6.68-19.06l0,0l0,0c7.11-21.33,17.07-53.62,17.07-65.56C512,226.5,507.16,213.28,485.69,213.28z"/>
	<path id="XMLID_7_" class="st0" d="M208.78,258.22c0,3.56-4.12,13.37-4.69,14.79c-3.7,9.24-13.51,10.67-20.48,10.67
		c-10.38,0-13.8-3.7-13.8-9.53c0-4.55,3.84-12.37,4.27-13.51c4.69-10.67,12.94-11.8,21.19-11.8
		C202.24,248.83,208.78,251.82,208.78,258.22"/>
	<path id="XMLID_10_" class="st0" d="M135.25,293.35c-10.81,0-27.73,1.71-27.73,1.71c-1,1.14-4.12,5.12-9.1,6.54h-0.28
		c-4.41,2.84-10.1,4.69-16.92,4.69c-5.97,0-11.38-1.56-15.79-4.12c-9.53-5.55-15.08-15.36-15.08-22.76c0-1.56,1.99-1.28,4.55-1.14
		c0,0,32,0.71,48.07,0.71h15.93c22.76,0,43.09-6.54,43.09-39.82c0-15.5-3.7-58.03-30.44-58.03C101.83,180.99,0,220.53,0,273.15
		c0,10.38,4.69,19.91,12.8,28.44l0,0c16.36,17.07,46.36,28.87,78.51,28.87c30.58,0,66.84-17.49,69.83-28.87l0,0
		c0,0,0.14-0.43,0.14-0.85C161.28,294.63,145.78,293.35,135.25,293.35z M64.14,248.55c2.99-2.99,33.28-29.3,50.63-29.3
		c5.26,0,5.55,9.53,5.55,16.36c0,12.66-1.28,14.93-14.93,14.93H66.56C63.57,250.4,61.87,250.82,64.14,248.55z"/>
	<path id="XMLID_11_" class="st0" d="M349.87,236.46c0-23.47-26.74-26.88-48.21-26.88c-52.2,0-67.41,29.3-70.97,38.12
		c-8.39,20.48-18.63,42.24-18.63,54.04c0,0.14,0-0.14,0-0.14h-0.14c0.43,25.6,31.57,26.17,45.51,26.17c25.46,0,48.5-0.57,66.7-24.75
		l0,0c0-1.42,0.14-0.57,0.14-0.71c0.14-0.14,0.14-0.71,0.28-0.71l0,0c2.13-2.84,4.55-6.68,6.54-10.52
		C335.5,282.25,349.87,250.96,349.87,236.46z M283.88,297.9c-2.99,3.13-8.11,2.99-11.38,2.99c-5.55,0-9.81,0.43-9.81-5.69
		c0-8.82,6.12-40.39,15.22-53.05c2.42-3.41,7.82-3.98,11.38-3.98c9.24,0,9.53,1.71,9.53,6.54
		C298.95,251.53,291.98,289.51,283.88,297.9z"/>
</g>
</svg>
